<svg width="24" height="24" viewBox="0 0 24 24" fill="none" xmlns="http://www.w3.org/2000/svg">
<rect width="24" height="24" fill="black"/>
<path d="M6.33867 3.30325C6.36027 3.11049 6.38771 3.13705 6.56898 3.12584C7.3267 3.07898 8.08755 3.10485 8.84714 3.10161L14.9472 3.10083L17.8371 3.09886C18.2619 3.09824 18.9726 3.07613 19.3807 3.10802L19.3757 3.30569L19.368 3.51915L19.3441 3.53175L19.2596 3.52373L19.2093 3.52642C19.1655 3.60337 19.1777 3.86499 19.1298 3.95657L19.0583 3.96277L19.0087 3.94914C18.9347 4.02967 19.0074 4.2272 18.8461 4.40864C18.6252 4.67375 18.4064 5.14075 18.2041 5.4454C18.0343 5.70123 17.8291 5.94291 17.6686 6.18927C17.4137 6.58029 17.1701 6.97904 16.9147 7.37161C16.6643 7.75639 16.4094 8.06693 16.1389 8.43461C15.9939 8.63168 15.8735 8.89688 15.716 9.10402C15.5552 9.31538 15.3426 9.52113 15.2003 9.73488C15.03 9.99066 14.8817 10.2817 14.7188 10.5448C14.5288 10.8518 14.2939 11.1357 14.0992 11.4364C13.925 11.7055 13.7702 12.0366 13.5929 12.3059C13.38 12.6291 13.1107 12.8955 12.8974 13.2274C12.6991 13.5359 12.5269 13.8701 12.3407 14.1762C12.1694 14.458 11.8903 14.7818 11.7124 15.057C11.603 15.2263 10.9709 16.3557 10.8635 16.4198C10.7468 16.6251 10.6036 16.8009 10.4875 17.0123C10.372 17.2228 10.2956 17.4938 10.1546 17.6805C10.0555 17.8116 9.89667 17.8794 9.77894 18.0214C9.7493 18.1347 9.68366 18.5272 9.72068 18.6268C9.76879 18.6392 9.78809 18.6429 9.83756 18.6472L10.8504 18.6314C11.3101 18.5423 12.3349 18.6525 12.8321 18.5684C12.8552 18.5645 12.8693 18.54 12.8756 18.5153C12.7675 18.4191 11.531 18.4584 11.2989 18.4581L11.2939 18.4488C12.2238 18.4127 13.2626 18.4306 14.1966 18.4287L15.3549 18.4271C15.5592 18.4271 15.8249 18.4199 16.0248 18.437C16.34 18.4415 16.6154 18.4423 16.9296 18.4231C17.0508 18.4059 17.1639 18.3504 17.2763 18.3017C17.9627 18.0045 18.3738 17.3764 18.8656 16.8447C18.9691 16.7328 19.0638 16.5664 19.1811 16.4553C19.3076 16.3356 19.3842 16.3554 19.5494 16.3616C19.5318 16.486 19.5157 16.597 19.49 16.72C19.4735 16.8874 19.3218 17.3785 19.2621 17.5641C19.1184 18.0114 19.0105 18.3946 18.9026 18.8522C18.9142 18.9533 18.934 19.2184 18.8848 19.3027L18.8991 19.2868L18.8811 19.3009C18.8569 19.2769 18.8251 19.2399 18.798 19.2238C18.7471 19.4639 18.7035 19.9786 18.7104 20.2346C18.687 20.3077 18.6973 20.3369 18.612 20.3425L18.5811 20.3451C18.5715 20.3968 18.5655 20.4304 18.5498 20.4808L18.5399 20.5575L18.5478 20.6178C18.5366 20.6665 18.5303 20.6879 18.5307 20.7392C18.2891 20.7538 17.9099 20.7436 17.6615 20.7442L15.919 20.7428L10.8416 20.7377L7.27026 20.7403L6.17656 20.7435C5.98145 20.744 5.65748 20.7519 5.4708 20.7268C5.30998 20.7268 4.9471 20.7087 4.79334 20.6793C4.76504 20.6399 4.77276 20.5962 4.76942 20.5396C4.76718 20.5197 4.76627 20.4997 4.76671 20.4798C4.77346 20.1465 5.35415 19.2888 5.56948 18.9587C5.83797 18.547 6.17885 18.0061 6.46214 17.6007C6.88415 16.9968 7.40833 16.4541 7.80613 15.8247C7.96248 15.5773 8.12359 15.3212 8.28246 15.0768L10.1801 12.1063C10.3429 11.8569 10.5214 11.6313 10.6924 11.3898C10.8382 11.1841 10.9737 10.9635 11.118 10.7542C11.2982 10.4895 11.5004 10.2347 11.677 9.96795C11.9451 9.56272 12.1643 9.12652 12.4417 8.72634C12.6072 8.48747 12.787 8.26249 12.9597 8.02922C13.1693 7.74166 13.3707 7.4482 13.5635 7.14914L14.3893 5.84062C14.5556 5.57525 14.7121 5.23379 14.942 5.01389C14.9314 5.00672 14.9188 4.99821 14.9041 4.98831C14.7253 5.01025 14.4836 4.997 14.3103 4.99636C12.8028 4.9909 11.293 4.98749 9.78576 4.99355C9.59111 5.03903 9.26652 5.01136 9.0765 5.06297C9.07228 5.06413 8.99349 5.15147 8.95617 5.15501C8.89644 5.16067 8.85292 5.13121 8.81892 5.17027C9.05296 5.16944 9.33692 5.1603 9.56612 5.17426C9.18117 5.18556 8.90485 5.20588 8.52475 5.15063C8.46211 5.18252 8.33045 5.21418 8.25922 5.24369C7.32383 5.63129 6.80565 6.55533 6.15499 7.26704C6.11012 7.31612 6.03643 7.3576 5.96814 7.33292C5.89781 7.21451 6.03232 6.58653 6.06327 6.41615C6.21494 5.58117 6.33113 4.76453 6.32482 3.91306C6.32369 3.76017 6.32455 3.49146 6.3495 3.34526L6.33867 3.30325Z" fill="#F9F8F8"/>
<path d="M5.63996 19.8223C5.68713 19.8051 5.6976 19.7929 5.72872 19.7539C5.75401 19.8035 5.75872 19.8353 5.77038 19.8888L5.80995 19.8584C5.89235 19.8995 9.429 19.9188 9.76504 19.897L12.5796 19.8981L13.5018 19.8988C13.6089 19.8992 13.8367 19.8941 13.9342 19.9025C15.0384 19.8941 16.1428 19.899 17.2469 19.9169C17.2305 19.9735 17.2086 20.0185 17.2289 20.0702C17.2745 20.0941 17.2991 20.0966 17.3485 20.1057L17.7882 20.1245L17.8281 20.1264L18.0294 20.1278L18.0371 20.1219L18.2205 20.1347C18.2783 20.2794 18.3095 20.4928 18.405 20.5513C18.4633 20.5654 18.4823 20.562 18.54 20.5578L18.5479 20.6181C18.5367 20.6668 18.5305 20.6882 18.5308 20.7396C18.2892 20.7542 17.9101 20.744 17.6616 20.7445L15.9191 20.7431L10.8417 20.738L7.27037 20.7406L6.17668 20.7438C5.98156 20.7443 5.6576 20.7522 5.47092 20.7271C5.31009 20.7271 4.94721 20.709 4.79346 20.6796C4.76515 20.6402 4.77287 20.5965 4.76953 20.5399C4.88398 20.5538 5.18861 20.5362 5.31016 20.5292C5.33982 20.4392 5.34824 20.3775 5.34581 20.2839C5.32257 20.2059 5.58229 19.906 5.63996 19.8223Z" fill="#989798"/>
<path d="M5.63986 19.8223C5.68702 19.8051 5.6975 19.7929 5.72861 19.7539C5.7539 19.8035 5.75862 19.8353 5.77027 19.8888L5.80984 19.8584C5.89224 19.8995 9.42889 19.9188 9.76493 19.897L12.5795 19.8981L13.5017 19.8988C13.6088 19.8992 13.8366 19.8941 13.9341 19.9025C15.0383 19.8941 16.1426 19.899 17.2468 19.9169C17.2304 19.9735 17.2085 20.0185 17.2288 20.0702C17.2744 20.0941 17.299 20.0966 17.3483 20.1057L17.788 20.1245L17.8279 20.1264C17.8814 20.1394 17.9168 20.1409 17.9488 20.1832C17.8505 20.424 15.4616 20.2966 15.104 20.3221C14.7425 20.307 14.283 20.3191 13.9151 20.318C13.0878 20.3145 12.2604 20.3161 11.433 20.3228C11.0731 20.2991 10.4474 20.3179 10.0724 20.32C9.38347 20.3237 8.66442 20.308 7.979 20.3224C7.20155 20.3133 6.08258 20.3558 5.34571 20.2839C5.32247 20.2059 5.58218 19.906 5.63986 19.8223Z" fill="#5A5A5A"/>
<path d="M13.9341 19.902C15.0383 19.8935 16.1426 19.8984 17.2467 19.9164C17.2303 19.973 17.2085 20.018 17.2287 20.0697C17.2744 20.0936 17.299 20.096 17.3483 20.1052C17.0109 20.1016 13.8339 20.118 13.7671 20.0851C14.052 20.0363 14.4027 20.0762 14.6924 20.0684C14.7954 20.0656 15.0268 20.1031 15.0863 20.0206C15.0697 19.9835 15.0479 19.9522 15.0031 19.9436C14.7531 19.8962 14.1495 19.984 13.9341 19.902Z" fill="#9C9A9B"/>
<path d="M5.34581 20.2837C6.08269 20.3556 7.20166 20.313 7.9791 20.3222L8.27997 20.351C8.18486 20.3521 8.05894 20.3375 7.99299 20.3923C7.98214 20.4477 7.98367 20.4549 7.9989 20.5094L8.31059 20.515C8.28139 20.5449 6.75036 20.5206 6.56218 20.5829C6.56565 20.649 6.55485 20.6576 6.48662 20.6822L6.48732 20.7043C6.61761 20.7066 6.7686 20.714 6.89559 20.6961L6.90798 20.7137C6.59201 20.7216 6.27594 20.7254 5.95987 20.7251C5.83004 20.7253 5.58841 20.7138 5.47092 20.7268C5.31009 20.7268 4.94721 20.7087 4.79346 20.6794C4.76515 20.64 4.77287 20.5962 4.76953 20.5396C4.88398 20.5535 5.18861 20.5359 5.31016 20.5289C5.33982 20.4389 5.34824 20.3772 5.34581 20.2837Z" fill="#B3B2B3"/>
<path d="M11.433 20.3223C12.2603 20.3156 13.0877 20.3141 13.9151 20.3176C14.2829 20.3186 14.7425 20.3065 15.104 20.3216C15.1939 20.3309 15.2839 20.339 15.374 20.3461L15.3682 20.3527L15.1594 20.3554C15.1301 20.4032 15.0792 20.4675 15.0798 20.5157C15.1363 20.5218 15.1858 20.5257 15.2407 20.5412C15.1888 20.5584 14.1538 20.5357 14.023 20.5348L10.6392 20.521C10.6493 20.5132 11.1397 20.5065 11.2151 20.5034C11.2426 20.4754 11.2728 20.4011 11.2912 20.3615C11.2693 20.3503 10.8496 20.3522 10.7825 20.3511C10.9438 20.329 11.2418 20.3385 11.433 20.3223Z" fill="#B3B2B3"/>
<path d="M18.0293 20.1276L18.037 20.1216L18.2204 20.1344C18.2782 20.2791 18.3094 20.4925 18.4049 20.551C18.4631 20.5651 18.4822 20.5617 18.5399 20.5575L18.5477 20.6178C18.5283 20.6312 18.5198 20.6326 18.4979 20.641C18.4206 20.6185 18.3559 20.6034 18.2936 20.5366C18.21 20.4468 18.1008 20.3148 18.0308 20.2128C18.0302 20.1785 18.0297 20.1501 18.0293 20.1276Z" fill="#B3B2B3"/>
<path d="M14.942 5.01375C15.0604 4.92289 15.2666 4.7341 15.4197 4.76636C15.481 4.81059 15.4646 4.78742 15.4893 4.85183C15.1279 5.90129 14.623 6.25382 14.0252 7.07911C13.5238 7.77136 13.1031 8.6497 12.6002 9.35125C11.5357 10.8981 10.4476 12.4334 9.45944 14.0317C9.05537 14.6852 8.67383 15.229 8.24189 15.854L6.9523 17.7361C6.65627 18.16 6.19038 18.7794 5.96793 19.2436C6.00474 19.2637 6.07252 19.3176 6.09894 19.3262C6.23427 19.3705 6.37681 19.236 6.50309 19.1779C6.39685 19.3096 6.27934 19.4379 6.13156 19.5247C5.99192 19.6166 5.91298 19.7285 5.80983 19.8579L5.77026 19.8883C5.75861 19.8349 5.7539 19.8031 5.7286 19.7535C5.69749 19.7925 5.68701 19.8046 5.63985 19.8218C5.58218 19.9056 5.32246 20.2054 5.3457 20.2835C5.34812 20.377 5.3397 20.4387 5.31005 20.5287C5.1885 20.5357 4.88387 20.5533 4.76942 20.5394C4.76718 20.5196 4.76627 20.4995 4.76671 20.4797C4.77346 20.1464 5.35415 19.2887 5.56948 18.9585C5.83797 18.5469 6.17885 18.0059 6.46214 17.6006C6.88415 16.9967 7.40833 16.4539 7.80613 15.8245C7.96248 15.5772 8.12359 15.3211 8.28246 15.0766L10.1801 12.1062C10.3429 11.8568 10.5214 11.6312 10.6924 11.3897C10.8382 11.1839 10.9737 10.9634 11.118 10.754C11.2982 10.4894 11.5004 10.2345 11.677 9.96782C11.9451 9.56259 12.1643 9.12639 12.4417 8.7262C12.6072 8.48733 12.787 8.26235 12.9597 8.02909C13.1693 7.74153 13.3707 7.44806 13.5635 7.149L14.3893 5.84049C14.5556 5.57511 14.7121 5.23366 14.942 5.01375Z" fill="#F9F8F8"/>
<path d="M5.96821 19.2439C6.00502 19.264 6.0728 19.3179 6.09922 19.3265C6.23456 19.3708 6.3771 19.2363 6.50338 19.1782C6.39714 19.3099 6.27963 19.4383 6.13185 19.525C5.99221 19.6169 5.91327 19.7288 5.81012 19.8582L5.77055 19.8886C5.75889 19.8352 5.75418 19.8034 5.72889 19.7538C5.69778 19.7928 5.6873 19.805 5.64014 19.8221C5.76097 19.6363 5.85354 19.4351 5.96821 19.2439Z" fill="#313235"/>
<path d="M15.8382 4.55664C15.9572 4.61261 15.9878 4.62827 16.1194 4.65432C15.9832 4.81094 15.8713 5.00661 15.7623 5.18465C15.5658 5.49927 15.3808 5.82089 15.2077 6.14892C15.0747 6.40255 14.9419 6.67588 14.8044 6.92448C14.6224 7.22131 14.358 7.4378 14.146 7.71327C13.8915 8.04395 13.7315 8.47477 13.5013 8.80722C13.2311 9.19742 12.9492 9.56486 12.6918 9.96944C12.425 10.3886 12.3319 10.81 12.0601 11.2217C11.9168 11.4287 11.7553 11.5875 11.6191 11.7792L10.1599 13.867C9.99805 14.0948 9.81163 14.3079 9.64978 14.5351C9.49184 14.7568 9.38273 15.0332 9.23256 15.2617C8.76118 15.9789 8.30236 16.7078 7.78119 17.3901C7.60048 17.6267 7.29401 17.9697 7.1538 18.2304C7.01979 18.405 6.607 19.087 6.50294 19.1778C6.37666 19.2359 6.23412 19.3704 6.09878 19.3262C6.07236 19.3175 6.00458 19.2636 5.96777 19.2435C6.19022 18.7793 6.65612 18.16 6.95215 17.736L8.24173 15.854C8.67368 15.2289 9.05521 14.6851 9.45928 14.0316C10.4474 12.4334 11.5355 10.898 12.6001 9.35118C13.103 8.64964 13.5236 7.77129 14.025 7.07905C14.6229 6.25376 15.1277 5.90123 15.4891 4.85176C15.5401 4.7478 15.5423 4.72861 15.6424 4.67192C15.725 4.65791 15.7818 4.61453 15.8382 4.55664Z" fill="#040404"/>
<path d="M12.2893 10.4551L12.3089 10.4848C12.2992 10.5637 11.9086 11.1835 11.8461 11.2377C11.7119 11.0809 12.184 10.5594 12.2893 10.4551Z" fill="#5F5E5F"/>
<path d="M10.493 16.3289C10.4976 16.3087 10.5065 16.2877 10.5158 16.2689C10.7425 15.8086 11.0116 15.408 11.3245 15.0018C11.4228 14.8742 11.6006 14.6677 11.6814 14.5447C11.9452 14.1433 12.1279 13.7427 12.3927 13.3315C12.6109 12.9926 12.8466 12.802 13.0434 12.5125C13.3831 12.0126 13.6647 11.3292 13.9801 10.8234C14.2136 10.449 14.5843 10.0031 14.8503 9.62153L16.7224 6.894C17.02 6.46404 17.2453 5.97662 17.5488 5.55075C17.8067 5.20371 18.0879 4.87737 18.3407 4.52603C18.4341 4.39631 18.5502 4.14991 18.6919 4.0957C18.711 4.23299 18.7356 4.31316 18.8461 4.4088C18.6253 4.67392 18.4065 5.14092 18.2042 5.44556C18.0344 5.70139 17.8292 5.94308 17.6686 6.18943C17.4138 6.58046 17.1702 6.9792 16.9147 7.37177C16.6644 7.75656 16.4094 8.06709 16.139 8.43478C15.994 8.63184 15.8735 8.89704 15.716 9.10419C15.5553 9.31554 15.3427 9.5213 15.2004 9.73505C15.0301 9.99083 14.8818 10.2818 14.7189 10.545C14.5289 10.8519 14.294 11.1359 14.0993 11.4365C13.925 11.7057 13.7703 12.0367 13.5929 12.3061C13.3801 12.6293 13.1108 12.8957 12.8975 13.2275C12.6992 13.536 12.527 13.8702 12.3408 14.1764C12.1695 14.4581 11.8904 14.7819 11.7125 15.0572C11.6031 15.2264 10.971 16.3558 10.8636 16.4199C10.7468 16.6253 10.6036 16.801 10.4876 17.0125C10.372 17.223 10.2957 17.494 10.1547 17.6806C10.0556 17.8118 9.89675 17.8796 9.77901 18.0216C9.74938 18.1349 9.68374 18.5274 9.72076 18.6269C9.76887 18.6394 9.78817 18.643 9.83764 18.6474L9.73925 18.6487C9.67873 18.6438 9.58724 18.6506 9.52417 18.6534C9.50093 18.5046 9.57358 18.2231 9.54985 18.0622C9.53415 17.9557 9.50392 17.9458 9.41699 17.8783C9.4609 17.7879 9.9334 17.2754 10.0375 17.1273C10.2413 16.8373 10.3237 16.6228 10.493 16.3289Z" fill="#E0E0DF"/>
<path d="M10.493 16.3286C10.5046 16.5169 10.1551 16.9622 10.0975 17.1631C10.0765 17.2364 10.0852 17.2958 10.0897 17.3707C10.1398 17.3771 10.2321 17.399 10.2663 17.3774C10.3833 17.1794 10.6531 16.5038 10.8636 16.4197C10.7468 16.625 10.6036 16.8008 10.4876 17.0122C10.372 17.2227 10.2957 17.4937 10.1547 17.6804C10.0556 17.8115 9.89675 17.8793 9.77901 18.0213C9.74938 18.1346 9.68374 18.5271 9.72076 18.6267C9.76887 18.6391 9.78817 18.6428 9.83764 18.6471L9.73925 18.6485C9.67873 18.6435 9.58724 18.6504 9.52417 18.6531C9.50093 18.5043 9.57358 18.2229 9.54985 18.0619C9.53415 17.9554 9.50392 17.9455 9.41699 17.878C9.4609 17.7876 9.9334 17.2751 10.0375 17.127C10.2413 16.8371 10.3237 16.6225 10.493 16.3286Z" fill="#A1A09F"/>
<path d="M6.34969 3.34521C6.3587 3.4605 6.37194 3.58394 6.38444 3.69865C6.40279 3.86694 6.34698 4.22656 6.48618 4.34484L6.51051 4.33979C6.54605 4.28302 6.57108 4.21582 6.60562 4.1725C6.70436 4.04863 6.56636 3.8199 6.70499 3.72762C6.69213 3.89842 6.67007 4.05072 6.71176 4.21959C6.77712 4.25994 6.86624 4.32816 6.94008 4.32311C6.98487 4.30114 6.99277 4.29843 7.01829 4.25617C7.04047 4.35964 7.06601 4.48794 7.04314 4.59378C6.98937 4.62748 6.9941 4.61236 6.98278 4.65805C7.20087 5.15602 7.69591 4.50455 7.90577 4.48154L7.85207 4.55305C7.96531 4.57692 8.06565 4.57033 8.12891 4.67601C8.12202 4.70104 8.11548 4.7262 8.10929 4.75144L8.10799 4.76165C8.41062 4.75555 8.74668 4.78951 9.04055 4.77283C8.9867 4.74107 8.67417 4.80131 8.59051 4.73446C8.59967 4.70929 8.67861 4.60928 8.69048 4.60909C9.11777 4.60227 9.56773 4.62273 9.99303 4.61037C9.97989 4.68916 9.88776 4.85204 9.832 4.90428C9.75972 4.97203 9.60312 4.96364 9.52263 4.98964L9.78595 4.99351C9.5913 5.03898 9.26671 5.01131 9.07669 5.06292C9.07247 5.06408 8.99368 5.15143 8.95636 5.15496C8.89663 5.16062 8.85311 5.13116 8.81911 5.17022C9.05315 5.16939 9.33711 5.16025 9.56631 5.17421C9.18136 5.18551 8.90504 5.20583 8.52494 5.15059C8.4623 5.18247 8.33064 5.21413 8.25941 5.24364C7.32403 5.63124 6.80584 6.55529 6.15519 7.26699C6.11031 7.31607 6.03662 7.35755 5.96833 7.33287C5.898 7.21447 6.03251 6.58649 6.06346 6.4161C6.21513 5.58113 6.33132 4.76448 6.32501 3.91301C6.32388 3.76012 6.32474 3.49142 6.34969 3.34521Z" fill="#CECDCE"/>
<path d="M7.21582 5.14766C7.29951 4.98376 7.68226 4.65189 7.85217 4.55322C7.9654 4.57709 8.06574 4.5705 8.129 4.67618C8.12211 4.70121 8.11557 4.72637 8.10939 4.75161L8.10809 4.76182C7.85002 4.83338 7.51896 5.12699 7.32081 5.30409C7.29976 5.24306 7.34829 5.21725 7.33474 5.13174C7.27958 5.11156 7.28599 5.12281 7.21582 5.14766Z" fill="#232527"/>
<path d="M7.21573 5.14743C7.2859 5.12257 7.27948 5.11132 7.33464 5.1315C7.3482 5.21702 7.29966 5.24282 7.32072 5.30385C7.16303 5.47673 7.00648 5.65063 6.85107 5.82559C6.81632 5.8004 6.8151 5.78868 6.79688 5.74772C6.86397 5.6163 7.11462 5.2482 7.21573 5.14743Z" fill="#040404"/>
<path d="M9.52258 4.98975L9.7859 4.99361C9.59126 5.03909 9.26666 5.01142 9.07664 5.06303C9.07243 5.06419 8.99364 5.15154 8.95632 5.15507C8.89659 5.16073 8.85307 5.13127 8.81907 5.17033C9.05311 5.1695 9.33706 5.16036 9.56627 5.17432C9.18132 5.18562 8.90499 5.20594 8.5249 5.15069C8.55979 5.14053 8.59521 5.12875 8.62993 5.11768C8.755 4.95997 9.31277 4.99548 9.52258 4.98975Z" fill="#343334"/>
<path d="M6.79711 5.74756C6.81533 5.78852 6.81655 5.80024 6.8513 5.82543C6.7858 5.90947 6.71619 5.9749 6.64062 6.04946C6.67731 5.96038 6.73963 5.82422 6.79711 5.74756Z" fill="#43434A"/>
<path d="M8.744 18.6356C8.73584 18.6141 8.71146 18.5626 8.72645 18.5408C9.67305 17.1643 10.5848 15.7332 11.5206 14.3509L12.8068 12.4483C13.0396 12.1103 13.2967 11.7687 13.5201 11.4271C13.699 11.1536 13.8528 10.7298 14.0408 10.4576C14.3571 9.9763 14.7466 9.51278 15.0506 9.0255C15.5879 8.16435 16.1105 7.34619 16.7458 6.55113C17.0906 6.11963 17.3505 5.51933 17.6944 5.07306C17.8326 4.89329 17.9807 4.68991 18.1327 4.52174C18.2342 4.40954 18.5542 3.92202 18.6924 3.96453C18.7176 4.02423 18.7059 4.02013 18.6918 4.09572C18.5501 4.14993 18.434 4.39632 18.3406 4.52605C18.0878 4.87738 17.8066 5.20372 17.5487 5.55076C17.2452 5.97663 17.0198 6.46405 16.7223 6.89401L14.8502 9.62154C14.5842 10.0031 14.2135 10.449 13.98 10.8235C13.6646 11.3292 13.383 12.0126 13.0432 12.5125C12.8465 12.802 12.6108 12.9926 12.3926 13.3315C12.1278 13.7427 11.9451 14.1433 11.6813 14.5448C11.6005 14.6677 11.4227 14.8742 11.3244 15.0018C11.0115 15.408 10.7423 15.8086 10.5156 16.2689C10.5064 16.2877 10.4975 16.3088 10.4929 16.3289C10.3236 16.6228 10.2412 16.8374 10.0374 17.1273C9.93328 17.2754 9.46078 17.7879 9.41687 17.8783C9.276 18.0883 8.98146 18.544 8.744 18.6356Z" fill="#040404"/>
<path d="M6.33887 3.30325C6.36047 3.11049 6.38791 3.13705 6.56918 3.12584C7.3269 3.07898 8.08775 3.10485 8.84734 3.10161L14.9474 3.10083L17.8373 3.09886C18.2621 3.09824 18.9728 3.07613 19.3809 3.10802L19.3759 3.30569C18.7441 3.28556 18.0391 3.30121 17.4027 3.30183L13.9183 3.30249C11.3918 3.28447 8.8653 3.28472 6.33887 3.30325Z" fill="#5F5E5F"/>
<path d="M10.1649 4.57194C11.5004 4.5496 12.8436 4.59391 14.1803 4.56691C14.5312 4.55981 15.3207 4.52288 15.654 4.62077C15.6545 4.64886 15.6565 4.64823 15.6426 4.67217C15.5426 4.72886 15.5403 4.74805 15.4894 4.85201C15.4647 4.7876 15.4811 4.81077 15.4198 4.76655C15.2667 4.73429 15.0605 4.92308 14.9421 5.01394C14.9315 5.00677 14.9189 4.99826 14.9042 4.98836C14.7254 5.0103 14.4837 4.99705 14.3104 4.99641C12.8029 4.99095 11.2931 4.98754 9.78587 4.9936L9.52254 4.98973C9.60303 4.96374 9.75964 4.97212 9.83192 4.90437C9.88768 4.85213 9.9798 4.68925 9.99295 4.61047C9.56765 4.62283 9.11769 4.60237 8.6904 4.60919C8.67853 4.60938 8.59959 4.70938 8.59043 4.73455C8.67408 4.8014 8.98662 4.74116 9.04046 4.77293C8.74659 4.78961 8.41054 4.75565 8.10791 4.76175L8.10921 4.75153L8.16277 4.73422C8.17014 4.7191 8.17806 4.70439 8.1859 4.68952C8.19547 4.67136 8.20468 4.65239 8.2195 4.63775C8.33196 4.52681 9.91651 4.567 10.1649 4.57194Z" fill="#989798"/>
<path d="M8.13585 4.37585C8.43854 4.37908 8.75639 4.36253 9.0631 4.3605L11.4261 4.35449L14.1546 4.35906C14.4877 4.36101 14.8554 4.37729 15.1808 4.37518C15.4078 4.40288 15.6295 4.46399 15.8386 4.55655C15.7821 4.61444 15.7253 4.65782 15.6427 4.67183C15.6565 4.64789 15.6545 4.64852 15.6541 4.62043C15.3208 4.52254 14.5313 4.55947 14.1803 4.56657C12.8436 4.59357 11.5004 4.54926 10.165 4.5716C9.91657 4.56666 8.33202 4.52648 8.21956 4.63741C8.20474 4.65205 8.19553 4.67102 8.18596 4.68918C8.17813 4.70405 8.1702 4.71876 8.16283 4.73388L8.10927 4.7512C8.11546 4.72595 8.122 4.7008 8.12889 4.67577C8.06562 4.57009 7.96529 4.57668 7.85205 4.55281L7.90575 4.4813C7.95432 4.46854 8.0533 4.4016 8.13585 4.37585Z" fill="#474647"/>
<path d="M8.13574 4.37585C8.19001 4.36458 8.37749 4.34329 8.3978 4.33363C8.38609 4.276 8.36774 4.24085 8.38704 4.19506C8.73326 4.1545 9.27735 4.15631 9.63857 4.15345L11.6689 4.15039L13.7457 4.15306C14.1297 4.15593 14.5168 4.15867 14.9001 4.18126C14.9906 4.1866 15.1067 4.2299 15.1879 4.27041C15.1877 4.27031 15.2245 4.32944 15.2548 4.35252C15.1916 4.36022 15.1176 4.34588 15.0534 4.33665C15.1087 4.3669 15.1282 4.35843 15.1807 4.37518C14.8553 4.37729 14.4876 4.36101 14.1545 4.35906L11.426 4.35449L9.06299 4.3605C8.75629 4.36252 8.43844 4.37908 8.13574 4.37585Z" fill="#B3B2B3"/>
<path d="M18.4094 19.0841C18.4609 18.8343 18.518 17.9272 18.6462 17.8092L18.6635 17.8201C18.6713 17.8742 18.6376 17.9186 18.6098 17.97L18.6225 18.0112C18.8102 18.0691 18.7664 17.8538 19.1053 17.9377C19.1668 17.7252 19.4077 16.8265 19.49 16.7202C19.4735 16.8876 19.3218 17.3787 19.2621 17.5643C19.1184 18.0116 19.0105 18.3948 18.9026 18.8524C18.9142 18.9535 18.934 19.2185 18.8848 19.3029L18.8991 19.287L18.8811 19.3011C18.8569 19.2771 18.8251 19.2401 18.798 19.224C18.7471 19.4641 18.7035 19.9788 18.7104 20.2348C18.687 20.3079 18.6973 20.3371 18.612 20.3427C18.6222 20.2639 18.6477 20.1608 18.5779 20.1137L18.5271 20.127C18.4854 20.0676 18.4831 20.0432 18.4675 19.9718C18.4049 19.8148 18.3993 19.6905 18.3749 19.5264C18.3567 19.3706 18.3814 19.2364 18.4094 19.0841Z" fill="#C5C4C5"/>
<path d="M18.4094 19.084C18.4799 19.2576 18.5092 19.8101 18.4675 19.9716C18.4049 19.8147 18.3993 19.6903 18.3749 19.5262C18.3567 19.3705 18.3814 19.2362 18.4094 19.084Z" fill="#A2A3A2"/>
<path d="M18.7979 19.2236C18.8 19.1492 18.8771 18.9252 18.9024 18.8521C18.914 18.9532 18.9339 19.2182 18.8847 19.3025L18.899 19.2867L18.881 19.3007C18.8567 19.2768 18.8249 19.2398 18.7979 19.2236Z" fill="#343334"/>
<path d="M16.025 18.4367C16.3402 18.4412 16.6156 18.4421 16.9298 18.4229C16.9026 18.4537 16.8626 18.5015 16.8347 18.5291C16.4356 18.6278 15.5045 18.6603 15.0731 18.6281C14.178 18.6512 13.2017 18.629 12.2996 18.6347C11.8172 18.6276 11.3315 18.6415 10.8506 18.6312C11.3103 18.542 12.3351 18.6522 12.8322 18.5682C12.8554 18.5642 12.8694 18.5397 12.8758 18.515C12.7677 18.4189 11.5312 18.4581 11.2991 18.4578L11.294 18.4485C12.224 18.4124 13.2628 18.4303 14.1968 18.4284L15.355 18.4268C15.5593 18.4268 15.8251 18.4196 16.025 18.4367Z" fill="#343334"/>
<path d="M16.0251 18.4367C16.3404 18.4412 16.6157 18.4421 16.93 18.4229C16.9028 18.4537 16.8628 18.5015 16.8349 18.5291C16.4358 18.6278 15.5047 18.6603 15.0732 18.6281L15.0834 18.6024C15.2523 18.5818 15.7207 18.6199 15.8278 18.5856C15.8434 18.5389 15.8314 18.5379 15.8087 18.4826C15.7337 18.4272 15.2741 18.4746 15.1186 18.4554L15.1181 18.4453C15.4119 18.4449 15.7338 18.4505 16.0251 18.4367Z" fill="#6F6E6F"/>
<path d="M5.81006 19.8577C5.91321 19.7282 5.99215 19.6164 6.13179 19.5244C6.14434 19.6031 6.13053 19.5927 6.17739 19.6421C6.3505 19.695 7.53591 19.7156 7.68229 19.6841C8.26419 19.6875 8.84459 19.7083 9.42641 19.7129C9.50971 19.7135 9.58932 19.715 9.67241 19.7216C9.5221 19.7242 8.92529 19.6935 8.8531 19.7987C8.86123 19.8492 8.85158 19.8322 8.88741 19.8645C9.24199 19.8817 9.38789 19.8505 9.76515 19.8963C9.42911 19.9181 5.89246 19.8988 5.81006 19.8577Z" fill="#B2B0B1"/>
<path d="M10.8506 18.6313C11.3314 18.6416 11.8172 18.6278 12.2996 18.6349C12.0854 18.7803 11.0586 18.5364 11.0054 18.7837C11.2169 18.8633 11.7462 18.7556 11.9836 18.8306C12.0186 18.8418 12.0966 18.8033 12.1504 18.8352C12.1234 18.8445 10.1892 18.8446 9.98282 18.8397C9.8812 18.8072 9.81695 18.845 9.73632 18.8049C9.70888 18.7385 9.72428 18.7323 9.73931 18.6485L9.83769 18.6471L10.8506 18.6313Z" fill="#B6B4B5"/>
<path d="M9.41701 17.8779C9.50394 17.9454 9.53417 17.9553 9.54987 18.0618C9.5736 18.2228 9.50095 18.5043 9.52419 18.6531C9.51979 18.7119 9.51448 18.7707 9.51424 18.8298C9.43948 18.8329 9.30817 18.8337 9.23842 18.8523C9.15603 18.8743 9.1738 18.9502 9.15048 19C9.14487 18.9143 9.16278 18.8086 9.12968 18.7447C9.09553 18.7234 9.08027 18.7235 9.04031 18.7221L9.07858 18.693C9.20766 18.7701 9.3281 18.8519 9.48719 18.8022C9.47492 18.7342 9.40065 18.7326 9.37978 18.6658C9.34616 18.5582 9.20347 18.4417 9.09284 18.4326C8.91482 18.4899 8.99598 18.6833 8.7604 18.6384L8.74414 18.6352C8.9816 18.5437 9.27614 18.088 9.41701 17.8779Z" fill="#C5C4C4"/>
<path d="M6.70496 3.72748C7.12966 3.59683 7.14216 3.72219 7.14706 4.11953C7.09361 4.1639 7.04912 4.19385 7.01825 4.25603C6.99273 4.29828 6.98484 4.30099 6.94005 4.32296C6.8662 4.32801 6.77708 4.25979 6.71172 4.21945C6.67003 4.05057 6.69209 3.89827 6.70496 3.72748Z" fill="#040404"/>
<path d="M7.15423 18.2305C7.1067 18.4511 6.81879 18.7899 6.7039 18.992C6.62253 19.1353 6.25766 19.4808 6.28239 19.6264C6.41319 19.695 7.60443 19.631 7.68233 19.6843C7.53596 19.7158 6.35054 19.6953 6.17743 19.6423C6.13057 19.593 6.14439 19.6034 6.13184 19.5246C6.27962 19.4379 6.39712 19.3096 6.50337 19.1779C6.60743 19.087 7.02022 18.4051 7.15423 18.2305Z" fill="#E0E0DF"/>
<path d="M18.375 19.5259C18.3994 19.69 18.405 19.8143 18.4677 19.9713C18.4832 20.0427 18.4855 20.0671 18.5272 20.1265L18.578 20.1132C18.6478 20.1603 18.6224 20.2635 18.6121 20.3422L18.5812 20.3449C18.5717 20.3965 18.5656 20.4301 18.5499 20.4806L18.54 20.5572C18.4823 20.5614 18.4633 20.5648 18.4051 20.5507C18.3096 20.4922 18.2784 20.2788 18.2206 20.1341L18.0371 20.1213C18.1034 20.1051 18.2006 20.1197 18.2962 20.0963L18.3082 20.0425L18.337 20.0532C18.3877 20.1784 18.294 20.2895 18.4631 20.4753L18.4837 20.4658C18.5266 20.1394 18.4424 20.0694 18.3563 19.7841C18.348 19.7568 18.37 19.5694 18.375 19.5259Z" fill="#E0E0DF"/>
<path d="M18.5273 20.1266L18.5781 20.1133C18.6479 20.1604 18.6225 20.2636 18.6122 20.3423L18.5813 20.345C18.5718 20.3966 18.5657 20.4302 18.55 20.4807C18.551 20.3587 18.5584 20.2444 18.5273 20.1266Z" fill="#777979"/>
<path d="M17.2469 19.9165C17.3814 19.9218 17.5108 19.9327 17.645 19.9439C17.5858 19.9562 17.5616 19.9594 17.5013 19.9622C17.5032 20.0146 17.4983 20.048 17.5299 20.0882C17.6157 20.1141 17.6401 20.0798 17.7881 20.1241L17.3484 20.1053C17.2991 20.0962 17.2745 20.0937 17.2289 20.0698C17.2086 20.0181 17.2305 19.9731 17.2469 19.9165Z" fill="#E0E0DF"/>
<path d="M9.52411 18.6529C9.58718 18.6501 9.67867 18.6433 9.7392 18.6482C9.72417 18.7321 9.70877 18.7382 9.73621 18.8047C9.81684 18.8447 9.88109 18.8069 9.98271 18.8394C9.83879 18.8469 9.66076 18.8354 9.51416 18.8296C9.51441 18.7706 9.51971 18.7118 9.52411 18.6529Z" fill="#B3B2B3"/>
<path d="M17.3875 18.9261C17.5006 18.8658 17.7283 18.6851 17.8185 18.6821C17.7996 18.7734 17.5292 18.9955 17.4419 19.0511C17.2612 19.1661 17.1251 19.201 16.9156 19.2215C16.8445 19.2133 16.8351 19.2204 16.7969 19.1645C16.8168 19.11 16.8119 19.1252 16.859 19.0837C16.9577 19.0848 17.14 19.0923 17.2204 19.0386C17.2343 18.9887 17.2192 18.9874 17.1877 18.9288C17.2384 18.9003 17.3292 18.9157 17.3875 18.9261Z" fill="#989798"/>
<path d="M16.9154 19.2219C16.7876 19.2427 16.2973 19.2376 16.1306 19.2468L16.1407 19.2293C16.2405 19.175 16.3339 19.2657 16.4068 19.1816C16.4071 19.1432 16.4122 19.1188 16.3907 19.0895C16.1584 19.0976 15.9663 19.0995 15.7341 19.0924L15.7276 19.0813L15.6743 19.0863C15.7827 19.0717 16.7586 19.0696 16.8588 19.0841C16.8117 19.1256 16.8166 19.1104 16.7967 19.1649C16.8349 19.2208 16.8444 19.2136 16.9154 19.2219Z" fill="#E0E0DF"/>
<path d="M9.33675 19.2322C9.2827 19.233 9.2495 19.2314 9.19587 19.2266C9.13993 19.1859 9.15333 19.2064 9.13281 19.1501L9.1567 19.1098C9.23164 19.0716 9.2303 19.086 9.32656 19.0906C9.3824 19.0848 9.43897 19.0715 9.48534 19.1008C9.5257 19.1514 9.51925 19.13 9.52305 19.1848C9.46191 19.2687 9.43916 19.2473 9.33675 19.2322Z" fill="#B3B2B3"/>
<path d="M9.33675 19.232C9.2827 19.2329 9.2495 19.2312 9.19587 19.2265C9.13993 19.1857 9.15333 19.2063 9.13281 19.15L9.1567 19.1097C9.23164 19.0715 9.2303 19.0859 9.32656 19.0905C9.32522 19.1488 9.32227 19.1751 9.33675 19.232Z" fill="#E0E0DF"/>
<path d="M19.3809 3.10791C19.4301 3.10882 19.5212 3.10433 19.5596 3.12592C19.5633 3.19978 19.5766 3.46215 19.5392 3.51241C19.4914 3.5169 19.3889 3.50808 19.3682 3.51905L19.3759 3.30559L19.3809 3.10791Z" fill="#43434A"/>
<path d="M18.6121 20.3423C18.6974 20.3367 18.6871 20.3075 18.7105 20.2344L18.7085 20.5012C18.7102 20.5863 18.7256 20.655 18.6893 20.7225C18.6425 20.748 18.585 20.7406 18.5308 20.739C18.5305 20.6877 18.5367 20.6663 18.5479 20.6176L18.54 20.5573L18.5499 20.4806C18.5656 20.4302 18.5717 20.3966 18.5812 20.3449L18.6121 20.3423Z" fill="#343334"/>
<path d="M18.6118 20.3423C18.6972 20.3367 18.6868 20.3075 18.7102 20.2344L18.7082 20.5012C18.695 20.5383 18.6956 20.5427 18.6646 20.5636L18.6409 20.5494C18.6135 20.4864 18.6151 20.4117 18.6118 20.3423Z" fill="#777979"/>
<path d="M19.2598 3.52344L19.3443 3.53146C19.3453 3.62131 19.362 3.66965 19.2906 3.72765L19.261 3.70949C19.2292 3.62137 19.2439 3.62294 19.2598 3.52344Z" fill="#E0E0DF"/>
<path d="M19.0585 3.96275L19.13 3.95654C19.1118 4.04723 19.1271 4.06832 19.0746 4.13169L19.0515 4.12346C19.0316 4.05913 19.0435 4.02849 19.0585 3.96275Z" fill="#E0E0DF"/>
</svg>
